<svg xmlns="http://www.w3.org/2000/svg" width="52" height="53" viewBox="0 0 52 53"><defs><style>.a,.b,.c,.e{fill:none;}.a,.b,.c{stroke:#fff;}.a{stroke-width:2px;}.b{opacity:0;}.c{stroke-linecap:round;stroke-linejoin:round;stroke-width:1.667px;}.d{stroke:none;}</style></defs><g transform="translate(-0.23)"><g class="a" transform="translate(0.23 0)"><rect class="d" width="52" height="53" rx="26"/><rect class="e" x="1" y="1" width="50" height="51" rx="25"/></g><g transform="translate(14.644 14.644)"><g class="b" transform="translate(-0.414 0.356)"><rect class="d" width="23" height="22"/><rect class="e" x="0.5" y="0.5" width="22" height="21"/></g><g transform="translate(2.093 2.148)"><path class="c" d="M13.865,6.667A5.531,5.531,0,0,1,19.4,12.2v6.454H15.71V12.2a1.844,1.844,0,1,0-3.688,0v6.454H8.333V12.2A5.532,5.532,0,0,1,13.865,6.667Z" transform="translate(-0.957 -1.134)"/><rect class="c" width="3.688" height="11.064" transform="translate(0 6.454)"/><circle class="c" cx="1.844" cy="1.844" r="1.844" transform="translate(0 0)"/></g></g></g></svg>