<svg xmlns="http://www.w3.org/2000/svg" width="53" height="53" viewBox="0 0 53 53"><defs><style>.a,.b,.c,.e{fill:none;}.a,.b,.c{stroke:#fff;}.a{stroke-width:2px;}.b{opacity:0;}.c{stroke-linecap:round;stroke-linejoin:round;stroke-width:1.667px;}.d{stroke:none;}</style></defs><g transform="translate(-0.461)"><g class="a" transform="translate(0.461 0)"><rect class="d" width="53" height="53" rx="26.5"/><rect class="e" x="1" y="1" width="51" height="51" rx="25.5"/></g><g transform="translate(15.976 14.644)"><g class="b" transform="translate(0.485 0.356)"><rect class="d" width="21" height="22"/><rect class="e" x="0.5" y="0.5" width="20" height="21"/></g><g transform="translate(1.111 2.148)"><path class="c" d="M20.1,15.423v2.766a1.844,1.844,0,0,1-2.009,1.844A18.243,18.243,0,0,1,10.13,17.2,17.968,17.968,0,0,1,4.6,11.67a18.243,18.243,0,0,1-2.83-7.994A1.844,1.844,0,0,1,3.6,1.667H6.368A1.843,1.843,0,0,1,8.213,3.253a11.816,11.816,0,0,0,.645,2.591,1.842,1.842,0,0,1-.415,1.945L7.272,8.959A14.736,14.736,0,0,0,12.8,14.492l1.171-1.171a1.842,1.842,0,0,1,1.945-.415,11.816,11.816,0,0,0,2.591.645A1.845,1.845,0,0,1,20.1,15.423Z" transform="translate(-1.76 -1.667)"/></g></g></g></svg>