<svg xmlns="http://www.w3.org/2000/svg" width="52" height="53" viewBox="0 0 52 53"><defs><style>.a,.b,.c,.e{fill:none;}.a,.b,.c{stroke:#fff;}.a{stroke-width:2px;}.b{opacity:0;}.c{stroke-linecap:round;stroke-linejoin:round;stroke-width:1.667px;}.d{stroke:none;}</style></defs><g transform="translate(-0.115)"><g class="a" transform="translate(0.115 0)"><rect class="d" width="52" height="53" rx="26"/><rect class="e" x="1" y="1" width="50" height="51" rx="25"/></g><g transform="translate(14.644 14.644)"><g class="b" transform="translate(0.471 0.356)"><rect class="d" width="22" height="22"/><rect class="e" x="0.5" y="0.5" width="21" height="21"/></g><g transform="translate(1.46 3.06)"><path class="c" d="M21.118,2.5a10.062,10.062,0,0,1-2.9,1.411,4.131,4.131,0,0,0-7.247,2.766V7.6a9.83,9.83,0,0,1-8.3-4.177s-3.688,8.3,4.61,11.987A10.73,10.73,0,0,1,.833,17.253c8.3,4.61,18.441,0,18.441-10.6a4.137,4.137,0,0,0-.074-.766A7.111,7.111,0,0,0,21.118,2.5Z" transform="translate(-0.833 -2.491)"/></g></g></g></svg>