<svg xmlns="http://www.w3.org/2000/svg" width="55" height="53" viewBox="0 0 55 53"><defs><style>.a,.b,.c,.e{fill:none;}.a,.b,.c{stroke:#fff;}.a{stroke-width:2px;}.b{opacity:0;}.c{stroke-linecap:round;stroke-linejoin:round;stroke-width:1.667px;}.d{stroke:none;}</style></defs><g transform="translate(0.323)"><g class="a" transform="translate(-0.323 0)"><rect class="d" width="55" height="53" rx="26.5"/><rect class="e" x="1" y="1" width="53" height="51" rx="25.5"/></g><g transform="translate(15.976 14.644)"><g class="b" transform="translate(-0.299 0.356)"><rect class="d" width="23" height="22"/><rect class="e" x="0.5" y="0.5" width="22" height="21"/></g><g transform="translate(1.077 3.991)"><path class="c" d="M20.693,5.565A2.563,2.563,0,0,0,18.905,3.72a66.41,66.41,0,0,0-7.93-.387s-6.343,0-7.93.425A2.561,2.561,0,0,0,1.258,5.6a26.714,26.714,0,0,0-.425,4.878,26.7,26.7,0,0,0,.425,4.914,2.563,2.563,0,0,0,1.788,1.77c1.587.425,7.93.425,7.93.425s6.343,0,7.93-.425a2.561,2.561,0,0,0,1.788-1.843,26.7,26.7,0,0,0,.425-4.841A26.712,26.712,0,0,0,20.693,5.565Z" transform="translate(-0.833 -3.333)"/><path class="c" d="M8.125,13.1l5.3-3.015-5.3-3.015Z" transform="translate(-0.056 -2.936)"/></g></g></g></svg>